Coordinates
version=1
nRows=11
nColumns=38
inDegrees=no

Units are S.I. units (second, meters, Newtons, ...)
If the header above contains a line with 'inDegrees', this indicates whether rotational values are in degrees (yes) or radians (no).

endheader
time	pelvis_tilt	pelvis_list	pelvis_rotation	pelvis_tx	pelvis_ty	pelvis_tz	hip_flexion_r	hip_adduction_r	hip_rotation_r	knee_angle_r	ankle_angle_r	subtalar_angle_r	mtp_angle_r	hip_flexion_l	hip_adduction_l	hip_rotation_l	knee_angle_l	ankle_angle_l	subtalar_angle_l	mtp_angle_l	lumbar_extension	lumbar_bending	lumbar_rotation	arm_flex_r	arm_add_r	arm_rot_r	elbow_flex_r	pro_sup_r	wrist_flex_r	wrist_dev_r	arm_flex_l	arm_add_l	arm_rot_l	elbow_flex_l	pro_sup_l	wrist_flex_l	wrist_dev_l
1.27	0.0145255	-0.0546626	-0.0182585	0.805041	0.953021	-0.324842	0.584178	0.068932	-0.338685	-0.50689	0.25699	0.1	-1.54716e-05	-0.260441	-0.0909333	-0.0940518	-1.40291	-0.315183	0.1	-4.62513e-05	-0.305941	0.0294665	-0.233306	-0.703286	-0.216554	-0.358218	1.69754	1.32789	0.0267923	-0.0465805	-0.0113391	-0.394183	0.050896	1.83414	1.78206	0.1	-0.0268818
1.28	0.0287144	-0.0683824	-0.0250314	0.803934	0.948822	-0.324105	0.56224	0.084702	-0.325711	-0.579135	0.244304	0.1	-1.54716e-05	-0.213343	-0.115526	-0.0964448	-1.53447	-0.307305	0.1	-4.62513e-05	-0.32919	0.0407535	-0.203724	-0.668479	-0.229984	-0.350508	1.70659	1.32927	0.0267923	-0.0465805	-0.0217567	-0.379344	0.0553059	1.77867	1.79034	0.1	-0.0268818
1.29	0.0392638	-0.0849056	-0.0333313	0.802761	0.944563	-0.323258	0.540991	0.104413	-0.307916	-0.657606	0.249296	0.1	-1.54716e-05	-0.157964	-0.143699	-0.100036	-1.65494	-0.293577	0.1	-4.62513e-05	-0.347691	0.054018	-0.170387	-0.629512	-0.247405	-0.341443	1.71355	1.33146	0.0267923	-0.0465805	-0.034201	-0.362832	0.055998	1.71527	1.8042	0.1	-0.0268818
1.3	0.0459506	-0.102594	-0.0422682	0.801581	0.940632	-0.322356	0.518511	0.126332	-0.286496	-0.735084	0.274495	0.1	-1.54716e-05	-0.0938735	-0.172715	-0.101704	-1.76195	-0.273448	0.1	-4.62513e-05	-0.360865	0.0677291	-0.134893	-0.586893	-0.268142	-0.330899	1.71826	1.33434	0.0267923	-0.0465805	-0.0487383	-0.34561	0.0532939	1.64622	1.82382	0.1	-0.0268818
1.31	0.0490909	-0.119514	-0.0507349	0.800421	0.937233	-0.321473	0.492333	0.148239	-0.262767	-0.804731	0.318471	0.1	-1.54716e-05	-0.021367	-0.19941	-0.0990144	-1.85359	-0.247143	0.1	-4.62513e-05	-0.368765	0.0801736	-0.0990825	-0.541571	-0.291343	-0.319018	1.72115	1.33758	0.0267923	-0.0465805	-0.0657549	-0.328759	0.0474686	1.57485	1.84847	0.1	-0.0268818
1.32	0.0493489	-0.133622	-0.0575895	0.799332	0.93448	-0.320747	0.459962	0.16762	-0.238196	-0.860794	0.376375	0.1	-1.54716e-05	0.0584925	-0.220553	-0.0906864	-1.92826	-0.215493	0.1	-4.62513e-05	-0.37185	0.089613	-0.0648081	-0.49498	-0.316008	-0.306341	1.72323	1.3408	0.0267923	-0.0465805	-0.0859931	-0.313379	0.0387334	1.50533	1.87639	0.1	-0.0268818
1.33	0.0474616	-0.143024	-0.0618792	0.798428	0.932512	-0.320299	0.41948	0.181962	-0.214386	-0.899179	0.441279	0.1	-1.54716e-05	0.144011	-0.233302	-0.0768291	-1.9847	-0.179691	0.1	-4.62513e-05	-0.370689	0.0944458	-0.0336699	-0.448947	-0.34105	-0.293821	1.72594	1.34365	0.0267923	-0.0465805	-0.110478	-0.30047	0.0272591	1.44223	1.90491	0.1	-0.0268818
1.34	0.043965	-0.146246	-0.0630284	0.797866	0.931473	-0.320136	0.370019	0.18913	-0.193	-0.917728	0.505583	0.1	-1.54716e-05	0.233105	-0.235651	-0.0588749	-2.02198	-0.141104	0.1	-4.62513e-05	-0.365699	0.0933816	-0.00678232	-0.405502	-0.365368	-0.282703	1.73085	1.34602	0.0267923	-0.0465805	-0.140337	-0.290802	0.0132144	1.38987	1.93082	0.1	-0.0268818
1.35	0.0390235	-0.14239	-0.060936	0.797805	0.931436	-0.320229	0.311943	0.187719	-0.175616	-0.916148	0.562038	0.1	-1.54716e-05	0.323549	-0.22676	-0.0392114	-2.03954	-0.101174	0.1	-4.62513e-05	-0.357032	0.0856144	0.0153561	-0.366601	-0.38797	-0.27425	1.73934	1.34807	0.0267923	-0.0465805	-0.176551	-0.284782	-0.00320944	1.35169	1.95083	0.1	-0.0268818
1.36	0.032484	-0.131242	-0.0559701	0.79838	0.932369	-0.320586	0.246711	0.177255	-0.163583	-0.895708	0.604338	0.1	-1.54716e-05	0.413129	-0.207059	-0.0206242	-2.03719	-0.0613549	0.1	-4.62513e-05	-0.344623	0.0709121	0.0328453	-0.333834	-0.408087	-0.269418	1.75229	1.35023	0.0267923	-0.0465805	-0.219706	-0.282367	-0.0218154	1.32973	1.96228	0.1	-0.0268818
1.37	0.0240752	-0.113271	-0.0488664	0.799684	0.934177	-0.321219	0.176493	0.15819	-0.157931	-0.858851	0.627386	0.1	-1.54716e-05	0.499661	-0.178117	-0.00571826	-2.01498	-0.0229778	0.1	-4.62513e-05	-0.32841	0.0496227	0.0462444	-0.308178	-0.425272	-0.268569	1.76994	1.353	0.0267923	-0.0465805	-0.269812	-0.283023	-0.0424573	1.32439	1.96368	0.1	-0.0268818
